<?xml version="1.0" encoding="UTF-8" standalone="no"?>
<!-- Created with Inkscape (http://www.inkscape.org/) -->

<svg
   xmlns:dc="http://purl.org/dc/elements/1.1/"
   xmlns:cc="http://creativecommons.org/ns#"
   xmlns:rdf="http://www.w3.org/1999/02/22-rdf-syntax-ns#"
   xmlns:svg="http://www.w3.org/2000/svg"
   xmlns="http://www.w3.org/2000/svg"
   xmlns:sodipodi="http://sodipodi.sourceforge.net/DTD/sodipodi-0.dtd"
   xmlns:inkscape="http://www.inkscape.org/namespaces/inkscape"
   width="744.09448819"
   height="1052.3622047"
   id="svg2"
   version="1.1"
   inkscape:version="0.48.4 r9939"
   sodipodi:docname="New document 1">
  <defs
     id="defs4" />
  <sodipodi:namedview
     id="base"
     pagecolor="#ffffff"
     bordercolor="#666666"
     borderopacity="1.0"
     inkscape:pageopacity="0.0"
     inkscape:pageshadow="2"
     inkscape:zoom="0.98994949"
     inkscape:cx="66.576551"
     inkscape:cy="544.92678"
     inkscape:document-units="px"
     inkscape:current-layer="layer1"
     showgrid="false"
     inkscape:window-width="1920"
     inkscape:window-height="1138"
     inkscape:window-x="-8"
     inkscape:window-y="-8"
     inkscape:window-maximized="1" />
  <metadata
     id="metadata7">
    <rdf:RDF>
      <cc:Work
         rdf:about="">
        <dc:format>image/svg+xml</dc:format>
        <dc:type
           rdf:resource="http://purl.org/dc/dcmitype/StillImage" />
        <dc:title></dc:title>
      </cc:Work>
    </rdf:RDF>
  </metadata>
  <g
     inkscape:label="fill"
     inkscape:groupmode="layer"
     id="layer1"
     style="display:inline">
    <path
       inkscape:connector-curvature="0"
       id="path3006"
       d="m 92.87472,874.88509 c 0,-4.60173 14.28712,-25.52281 31.74917,-46.49129 17.46204,-20.96848 44.63046,-53.70068 60.37426,-72.73821 L 213.62324,721.0419 190.77589,695.07765 C 149.25171,647.88867 119.44117,570.33128 119.44117,509.4878 c 0,-120.51236 86.8029,-237.31791 198.45242,-267.04572 41.26452,-10.9871 107.47136,-9.40108 149.50384,3.58143 l 35.59146,10.99308 35.36932,-33.48113 c 19.45312,-18.41462 49.71521,-47.11453 67.24907,-63.77758 17.53386,-16.66305 34.23799,-31.05098 37.12024,-31.97319 13.93262,-4.45779 6.37871,20.01201 -14.64279,47.43334 -12.89754,16.82411 -35.95648,48.12455 -51.24207,69.55654 l -27.79192,38.96724 28.50491,30.10554 c 53.32392,56.31822 72.77088,100.82873 76.99373,176.22467 4.82484,86.14447 -15.22619,142.84947 -71.66891,202.68171 -33.99571,36.03723 -75.40514,64.272 -108.71038,74.12359 -59.40778,17.57254 -136.00145,14.98619 -187.42791,-6.32888 l -29.33963,-12.16063 -22.48939,21.22118 c -20.67174,19.50599 -73.83281,65.543 -104.11,90.1583 -6.90131,5.61073 -15.6967,13.19009 -19.54532,16.84297 -9.63431,9.14434 -18.38312,8.32327 -18.38312,-1.72517 z M 442.73817,758.56074 C 557.00561,734.52384 644.98694,625.19807 645.36589,506.77519 645.478,471.7792 633.75082,424.98463 616.02377,389.69077 601.00852,359.79614 552.56044,304.1032 541.56989,304.1032 c -8.11614,0 -42.25165,46.91085 -37.5539,51.60859 1.6732,1.67321 16.64833,0.30972 33.27806,-3.03003 37.07044,-7.44482 39.09013,-7.46937 39.09013,-0.47531 0,4.55611 -52.91959,75.19559 -63.47476,84.72902 -1.61776,1.46115 -13.73844,15.80704 -26.93484,31.87974 -43.20883,52.62667 -42.93969,47.96423 -2.55097,44.19267 30.50771,-2.84885 35.34045,-2.14444 33.73345,4.91696 -1.03165,4.53321 -30.5675,32.85001 -65.63522,62.92624 -167.8211,143.93366 -178.92727,154.63197 -168.27354,162.09417 9.26381,6.48859 40.06682,15.24872 69.97766,19.90103 28.44102,4.42369 53.9056,3.2045 89.51221,-4.28554 z M 242.71896,682.59195 c 4.97312,-7.99055 15.70505,-22.64115 23.84873,-32.55681 12.78318,-15.56464 13.36279,-17.60284 4.24119,-14.91418 -5.81103,1.71284 -21.92266,4.71744 -35.80363,6.67682 -19.52917,2.75675 -25.21891,1.92378 -25.15314,-3.6823 0.0468,-3.9847 34.71596,-45.16726 77.04271,-91.5168 42.32675,-46.34955 76.95773,-85.48152 76.95773,-86.95996 0,-1.47843 -15.54138,-1.02371 -34.53639,1.01048 -19.19908,2.05605 -34.53639,1.61722 -34.53639,-0.98815 0,-2.57768 38.66266,-41.62142 85.91702,-86.76388 47.25437,-45.14246 90.51822,-86.4876 96.14189,-91.8781 10.06286,-9.64563 9.99911,-9.91801 -4.024,-17.19329 -46.14232,-23.93892 -128.10102,-20.65246 -190.49586,7.63871 -38.86514,17.6223 -98.80596,74.85908 -117.487,112.18697 -52.40371,104.71147 -37.82313,222.75387 36.89945,298.73285 21.31483,21.67318 27.60831,21.70511 40.98769,0.20775 z"
       style="fill:#50c83d;fill-opacity:1" />
  </g>
  <g
     inkscape:groupmode="layer"
     id="layer2"
     inkscape:label="stroke"
     style="display:none">
    <path
       inkscape:connector-curvature="0"
       id="path3004"
       d="m 92.789555,873.00646 c 0,-5.33519 6.089285,-15.42098 13.531745,-22.41279 7.44246,-6.99181 23.54208,-25.93874 35.77693,-42.10416 12.23485,-16.16548 26.3029,-34.17376 31.26234,-40.01838 4.95944,-5.84462 16.4294,-19.39415 25.48879,-30.11005 l 16.47162,-19.48341 -23.71377,-25.10375 c -40.47808,-42.85074 -72.2512,-122.6495 -72.2512,-181.46017 0,-119.90892 80.63793,-233.46256 189.71318,-267.15247 46.75729,-14.44186 110.87488,-14.31332 158.24308,0.31725 l 35.59146,10.99308 35.36932,-33.43175 c 19.45312,-18.38746 50.82159,-48.2664 69.70768,-66.39763 18.88615,-18.13124 36.22076,-31.80253 38.52136,-30.38066 5.93075,3.66538 5.1955,21.95831 -1.03736,25.81043 -2.87115,1.77449 -25.69364,32.0552 -50.71664,67.29047 l -45.4963,64.06413 26.00258,27.49389 c 31.85483,33.68176 50.65899,62.90789 66.21853,102.91933 16.10565,41.41563 17.03617,137.87659 1.75366,181.79492 -19.86093,57.07573 -72.64502,120.29384 -125.4411,150.23758 -62.05138,35.19301 -156.04857,42.84808 -218.64335,17.80622 -18.9774,-7.59216 -36.39691,-13.80393 -38.71001,-13.80393 -2.3131,0 -28.07552,20.92108 -57.24982,46.4913 -64.53952,56.56651 -101.09547,86.2092 -106.40775,86.28449 -2.191745,0.0311 -3.984975,-4.30871 -3.984975,-9.64394 z M 227.61885,756.12214 c 29.58589,-26.18267 75.6543,-66.39345 102.37425,-89.35733 95.14073,-81.76666 155.93767,-136.54851 153.85406,-138.63213 -1.16309,-1.16308 -12.1706,0.59307 -24.46112,3.90256 -25.91455,6.97806 -39.71027,3.64512 -35.06108,-8.47049 1.76767,-4.60645 30.10976,-40.54656 62.98245,-79.8669 51.09823,-61.12067 64.62931,-81.59271 51.79857,-78.36941 -1.46115,0.36709 -15.20929,2.24265 -30.55142,4.16797 -23.75227,2.98073 -27.89478,2.20422 -27.89478,-5.22886 0,-7.06038 69.10277,-109.55277 103.45572,-153.44429 8.15118,-10.41441 11.61018,-24.21076 4.13842,-16.50605 -2.19173,2.26006 -36.16071,34.33905 -75.4866,71.28665 -39.3259,36.94759 -95.10313,89.89176 -123.94939,117.6537 -28.84626,27.76194 -54.65181,51.27326 -57.34567,52.24736 -2.69385,0.9741 -4.89791,3.58377 -4.89791,5.79927 0,2.21549 11.35716,2.15877 25.23813,-0.12603 13.88097,-2.28482 28.22686,-4.29675 31.87975,-4.47095 8.5691,-0.40865 8.56538,12.83228 -0.006,21.88523 -35.26255,37.24333 -142.12415,158.65926 -142.12415,161.48142 0,3.78853 35.3448,-0.61689 49.96698,-6.22795 13.11076,-5.03107 16.74312,12.63519 4.78669,23.28039 -5.64567,5.02655 -20.86339,23.48503 -33.81715,41.01889 -12.95377,17.53386 -43.81275,56.89105 -68.57551,87.46043 -49.91145,61.6152 -45.12039,60.26679 33.69614,-9.48348 z m 208.23045,3.8838 c 39.84628,-7.34116 67.29497,-19.81347 103.53891,-47.04664 49.66276,-37.31587 81.12201,-83.26505 95.86453,-140.01896 23.6248,-90.94779 1.82049,-174.25924 -63.90943,-244.18982 l -30.62619,-32.58346 -19.27036,26.27706 c -10.5987,14.45238 -19.32965,28.38511 -19.40209,30.96162 -0.12811,4.55688 21.87792,2.6502 56.98615,-4.93749 11.82377,-2.55539 17.2682,-1.75808 17.2682,2.52885 0,4.84252 -49.81721,71.58565 -63.73778,85.39337 -1.4731,1.46115 -13.47542,15.80704 -26.67182,31.87974 -43.19174,52.60587 -42.86621,47.95737 -3.09838,44.24379 23.75679,-2.21844 35.06178,-1.40754 35.06178,2.51497 0,5.8639 -29.78053,35.20539 -63.75949,62.81951 -10.22809,8.31219 -19.79201,16.34704 -21.25316,17.85521 -1.46116,1.50818 -19.39352,17.08529 -39.84968,34.6158 -40.34919,34.57844 -67.52097,58.48304 -100.09099,88.05608 l -20.90043,18.97721 18.69589,8.87176 c 36.38522,17.26591 95.68327,22.89587 145.15434,13.7814 z M 243.30424,682.13016 c 7.57969,-10.95866 19.13193,-26.87851 25.67165,-35.37738 l 11.8904,-15.45254 -13.01068,3.24357 c -7.15588,1.78397 -23.17235,4.85899 -35.59217,6.83336 -38.06834,6.05173 -37.14154,4.55513 67.26645,-108.62129 27.9385,-30.28485 54.17882,-59.89119 58.31181,-65.79186 7.38039,-10.53698 6.88381,-10.66096 -27.81628,-6.9449 -19.43194,2.08099 -35.33081,1.70827 -35.33081,-0.82825 0,-2.53653 38.68346,-41.58027 85.96325,-86.76388 47.27979,-45.1836 90.65201,-86.6708 96.38272,-92.19376 10.33512,-9.96046 10.31667,-10.09753 -2.27893,-16.93466 -6.98411,-3.79111 -29.24004,-9.71792 -49.45761,-13.17069 -122.48218,-20.91757 -244.56921,60.31347 -283.35228,188.52946 -18.30455,60.51445 -6.99547,143.61384 27.47272,201.87023 14.91992,25.21693 47.3072,61.52743 54.87957,61.52743 2.87042,0 11.42051,-8.96618 19.00019,-19.92484 z"
       style="fill:#191712" />
  </g>
</svg>
